<!-- This svg is inspired by https://github.com/dcurtis/markdown-mark/blob/99572b4a4f71b4ea2b1186a30f440ff2fcf66d27/svg/markdown-mark.svg under CC0 license -->
<svg fill="none" height="128" viewBox="0 0 128 128" width="128" xmlns="http://www.w3.org/2000/svg"><g><path d="m 0 15 c 0 -8.2843 6.7157 -15 15 -15 h 98 c 8.284 0 15 6.7157 15 15 v 98 c 0 8.284 -6.716 15 -15 15 h -98 c -8.2843 0 -15 -6.716 -15 -15 z" fill="#0000FF"/><path d="m 15 10 c -2.7614 0 -5 2.2386 -5 5 v 98 c 0 2.761 2.2386 5 5 5 h 98 c 2.761 0 5 -2.239 5 -5 v -98 c 0 -2.7614 -2.239 -5 -5 -5 z" fill="#ADD8E6"/><path d="m20 103v-68h20l20 25 20-25h20v68h-20v-39l-20 25-20-25v39z" fill="#0000FF"/><path d="m 90 22.5 l 20 25 h -10 v 25 h -20 v -25 h -10 z" fill="#FF0000"/></g></svg>